<svg width="86" height="53" viewBox="0 0 86 53" fill="none" xmlns="http://www.w3.org/2000/svg">
<g id="EN_Full">
<g id="Vector">
<path id="Vector_2" fill-rule="evenodd" clip-rule="evenodd" d="M45.3628 4.81836H49.6423V48.6982C49.6423 51.0741 47.7263 53.0002 45.3628 53.0002H41.0833V9.12031C41.0833 6.74441 42.9993 4.81836 45.3628 4.81836ZM65.0486 22.1981V38.5455C65.0486 42.1588 67.7131 44.9123 71.2111 44.9123C74.6741 44.9123 77.3736 42.1584 77.3728 38.6507L77.3734 22.1981C77.3737 19.8222 79.2897 17.8963 81.6531 17.8961H85.9326V38.2013C85.9326 46.3744 79.3416 53 71.2111 53C63.0806 53 56.4896 46.3744 56.4896 38.2013V17.8961H60.7691C63.1326 17.8961 65.0486 19.8222 65.0486 22.1981ZM8.55884 21.1547L8.55903 4.81903H4.27951C1.93817 4.81903 0 6.73039 0 9.12098V35.7931L0.00712815 35.7933C0.271057 45.3431 7.83085 53.0008 17.1181 53.0008C26.5721 53.0008 34.2349 45.3431 34.2361 35.2768C34.2361 35.2075 34.2357 35.1382 34.2349 35.0692C34.2357 34.9951 34.2361 34.9209 34.2361 34.8466C34.2361 25.1054 27.1852 17.2086 18.4875 17.2086C14.7236 17.2086 11.268 18.6875 8.55884 21.1547ZM8.04549 35.0187C8.04549 29.5541 12.0308 25.1242 16.9469 25.1242C21.863 25.1242 25.8483 29.5541 25.8483 35.0187C25.8483 40.4833 21.863 44.9132 16.9469 44.9132C12.0308 44.9132 8.04549 40.4833 8.04549 35.0187Z" fill="#4E91E6"/>
<path id="Oval" d="M20.5418 6.88312C22.4326 6.88312 23.9654 5.34228 23.9654 3.44156C23.9654 1.54084 22.4326 0 20.5418 0C18.651 0 17.1182 1.54084 17.1182 3.44156C17.1182 5.34228 18.651 6.88312 20.5418 6.88312Z" fill="#0C1011"/>
</g>
</g>
</svg>
